<?xml version="1.0" encoding="UTF-8"?>
<svg xmlns="http://www.w3.org/2000/svg" xmlns:xlink="http://www.w3.org/1999/xlink" viewBox="0 0 100 100" width="100px" height="100px">
<g id="surface40072298">
<path style=" stroke:none;fill-rule:nonzero;fill:rgb(100%,100%,100%);fill-opacity:1;" d="M 90.140625 16.796875 C 86.746094 18.398438 80.964844 21.410156 78.0625 21.984375 C 77.949219 22.011719 77.859375 22.050781 77.75 22.078125 C 74.363281 18.738281 69.722656 16.667969 64.582031 16.667969 C 54.230469 16.667969 45.832031 25.0625 45.832031 35.417969 C 45.832031 35.960938 45.789062 36.964844 45.832031 37.5 C 32.425781 37.5 22.632812 30.503906 15.304688 21.511719 C 14.324219 20.304688 13.285156 20.933594 13.066406 21.792969 C 12.578125 23.734375 12.414062 26.980469 12.414062 29.296875 C 12.414062 35.132812 16.976562 40.867188 24.078125 44.421875 C 22.769531 44.757812 21.328125 45 19.828125 45 C 18.0625 45 16.027344 44.539062 14.25 43.605469 C 13.589844 43.257812 12.171875 43.355469 12.589844 45.039062 C 14.277344 51.785156 21.980469 56.519531 28.859375 57.898438 C 27.296875 58.820312 23.960938 58.632812 22.429688 58.632812 C 21.863281 58.632812 19.890625 58.5 18.617188 58.339844 C 17.453125 58.199219 15.667969 58.5 17.164062 60.765625 C 20.375 65.628906 27.640625 68.683594 33.894531 68.800781 C 28.136719 73.316406 18.722656 74.964844 9.699219 74.964844 C 7.875 74.925781 7.964844 77.003906 9.4375 77.773438 C 16.089844 81.265625 26.992188 83.332031 34.777344 83.332031 C 65.738281 83.332031 83.332031 59.738281 83.332031 37.496094 C 83.332031 37.136719 83.324219 36.386719 83.3125 35.632812 C 83.3125 35.558594 83.332031 35.488281 83.332031 35.414062 C 83.332031 35.300781 83.300781 35.191406 83.300781 35.078125 C 83.289062 34.511719 83.273438 33.984375 83.261719 33.707031 C 85.714844 31.9375 89.476562 28.863281 91.375 26.507812 C 92.019531 25.707031 91.5 24.738281 90.621094 25.042969 C 88.359375 25.828125 84.445312 27.355469 81.996094 27.644531 C 86.898438 24.398438 89.324219 21.574219 91.410156 18.4375 C 92.121094 17.367188 91.230469 16.277344 90.140625 16.796875 Z M 90.140625 16.796875 "/>
</g>
</svg>
