<?xml version="1.0" encoding="UTF-8"?>
<svg xmlns="http://www.w3.org/2000/svg" xmlns:xlink="http://www.w3.org/1999/xlink" viewBox="0 0 100 100" width="100px" height="100px">
<g id="surface40057733">
<path style=" stroke:none;fill-rule:nonzero;fill:rgb(100%,100%,100%);fill-opacity:1;" d="M 89.925781 25.773438 C 88.964844 22.191406 86.140625 19.367188 82.558594 18.410156 C 76.058594 16.667969 50 16.667969 50 16.667969 C 50 16.667969 23.941406 16.667969 17.441406 18.410156 C 13.859375 19.367188 11.035156 22.191406 10.074219 25.773438 C 8.332031 32.273438 8.332031 50 8.332031 50 C 8.332031 50 8.332031 67.726562 10.074219 74.226562 C 11.035156 77.808594 13.859375 80.632812 17.441406 81.589844 C 23.941406 83.332031 50 83.332031 50 83.332031 C 50 83.332031 76.058594 83.332031 82.558594 81.589844 C 86.144531 80.632812 88.964844 77.808594 89.925781 74.226562 C 91.667969 67.726562 91.667969 50 91.667969 50 C 91.667969 50 91.667969 32.273438 89.925781 25.773438 Z M 41.667969 60.824219 L 41.667969 39.175781 C 41.667969 37.570312 43.402344 36.570312 44.792969 37.371094 L 63.542969 48.195312 C 64.929688 48.996094 64.929688 51.003906 63.542969 51.804688 L 44.792969 62.628906 C 43.402344 63.433594 41.667969 62.429688 41.667969 60.824219 Z M 41.667969 60.824219 "/>
</g>
</svg>
